# xmcd
#
# Track frame offsets: 
#        150
#        21432
#        38856
#        49676
#        102643
#        126166
#        144650
#        193500
#        219794
#        251875
#        260370
#        290394
#
# Disc length: 4082 seconds
#
# Revision: 0
# Processed by: cddbd v1.5.2PL0 Copyright (c) Steve Scherf et al.
# Submitted via: ExactAudioCopy v0.95b4
#
DISCID=b60ff00c
DTITLE=Various Artist - More Blues Rarities - The Whiskey Collection
DYEAR=2009
DGENRE=Blues
TTITLE0=Isla Eckinger - Detroit Blues (For Chuck And Bill)
TTITLE1=Rod Mason , Ray Foxley - Aung Hagers Blues
TTITLE2=Bill Ramsey , Toots Thielemans - Stormy Monday
TTITLE3=Chris Barber - St. Louis Blues
TTITLE4=The Tremble Kids - Apex Blues
TTITLE5=Monty Alexander - Lloyd´s Tone
TTITLE6=Charly Antolini , Dick Morrissey - C-Jam Blues
TTITLE7=Chris Barber - Come Friday
TTITLE8=Ray Brown - Blues for Groundhog
TTITLE9=Bob Hall - 31 Blues
TTITLE10=The Tremble Kid - The Blues Is Swinging
TTITLE11=Rod Mason - Buddy Bolden´s Blues
EXTD=
EXTT0=
EXTT1=
EXTT2=
EXTT3=
EXTT4=
EXTT5=
EXTT6=
EXTT7=
EXTT8=
EXTT9=
EXTT10=
EXTT11=
PLAYORDER=
